<svg xmlns="http://www.w3.org/2000/svg" xmlns:xlink="http://www.w3.org/1999/xlink" version="1.1" x="0px" y="0px" viewBox="0 0 100 125" enable-background="new 0 0 100 100" xml:space="preserve"><path fill="#000000" d="M94.3,48.1c-5-6.7-11.7-12.3-19.1-16.2c-3.8-2-7.9-3.5-12-4.5c-4.3-1-8.7-1.6-13.2-1.6s-8.9,0.5-13.2,1.6  c-4.2,1-8.2,2.5-12,4.5c-7.5,3.8-14.1,9.4-19.1,16.2c-0.8,1.1-0.8,2.6,0,3.7c5,6.7,11.7,12.3,19.1,16.2c3.8,2,7.9,3.5,12,4.5  c4.3,1,8.7,1.6,13.2,1.6s8.9-0.5,13.2-1.6c4.2-1,8.2-2.5,12-4.5c7.5-3.8,14.1-9.4,19.1-16.2C95.1,50.8,95.1,49.2,94.3,48.1z   M50,32.3c9.7,0,17.7,7.9,17.7,17.7c0,9.7-7.9,17.7-17.7,17.7S32.3,59.7,32.3,50C32.3,40.3,40.3,32.3,50,32.3z"/><text x="0" y="115" fill="#000000" font-size="5px" font-weight="bold" font-family="'Helvetica Neue', Helvetica, Arial-Unicode, Arial, Sans-serif">Created by Janik Söllner</text><text x="0" y="120" fill="#000000" font-size="5px" font-weight="bold" font-family="'Helvetica Neue', Helvetica, Arial-Unicode, Arial, Sans-serif">from the Noun Project</text></svg>