<?xml version="1.0" encoding="UTF-8" standalone="no"?>
<svg width="90px" height="50px" viewBox="0 0 90 50" version="1.1" xmlns="http://www.w3.org/2000/svg" xmlns:xlink="http://www.w3.org/1999/xlink" xmlns:sketch="http://www.bohemiancoding.com/sketch/ns">
    <title>eye-0</title>
    <description>Created with Sketch (http://www.bohemiancoding.com/sketch)</description>
    <defs></defs>
    <g id="Page-1" stroke="none" stroke-width="1" fill="none" fill-rule="evenodd" sketch:type="MSPage">
        <g id="noun_85322_cc" sketch:type="MSLayerGroup" transform="translate(0.000000, 1.000000)" fill="#FFFFFF">
            <g id="Group" sketch:type="MSShapeGroup">
                <circle id="Oval" cx="45.2" cy="24.2" r="8.2"></circle>
                <path d="M89.3,22.1 C84.3,15.4 77.6,9.8 70.2,5.9 C66.4,3.9 62.3,2.4 58.2,1.4 C53.9,0.4 49.5,-0.2 45,-0.2 C40.5,-0.2 36.1,0.3 31.8,1.4 C27.6,2.4 23.6,3.9 19.8,5.9 C12.3,9.7 5.7,15.3 0.7,22.1 C-0.1,23.2 -0.1,24.7 0.7,25.8 C5.7,32.5 12.4,38.1 19.8,42 C23.6,44 27.7,45.5 31.8,46.5 C36.1,47.5 40.5,48.1 45,48.1 C49.5,48.1 53.9,47.6 58.2,46.5 C62.4,45.5 66.4,44 70.2,42 C77.7,38.2 84.3,32.6 89.3,25.8 C90.1,24.8 90.1,23.2 89.3,22.1 L89.3,22.1 Z M45,41.7 C35.3,41.7 27.3,33.8 27.3,24 C27.3,14.3 35.2,6.3 45,6.3 C54.8,6.3 62.7,14.3 62.7,24 C62.7,33.7 54.7,41.7 45,41.7 L45,41.7 Z M7.2,24 C11.5,18.8 16.8,14.6 22.7,11.5 C23.6,11 24.6,10.6 25.5,10.2 C22.6,14.2 21.1,19 21.1,24 C21.1,29 22.6,33.8 25.5,37.8 C24.6,37.4 23.6,36.9 22.7,36.5 C16.7,33.4 11.4,29.2 7.2,24 L7.2,24 Z M67.3,36.5 C66.4,37 65.4,37.4 64.5,37.8 C67.4,33.8 68.9,29 68.9,24 C68.9,19 67.4,14.2 64.5,10.2 C65.4,10.6 66.4,11.1 67.3,11.5 C73.2,14.5 78.5,18.8 82.8,24 C78.6,29.2 73.3,33.4 67.3,36.5 L67.3,36.5 Z" id="Shape"></path>
            </g>
        </g>
    </g>
</svg>